<?xml version="1.0" standalone="no"?>
<!DOCTYPE svg PUBLIC "-//W3C//DTD SVG 20010904//EN"
 "http://www.w3.org/TR/2001/REC-SVG-20010904/DTD/svg10.dtd">
<svg version="1.0" xmlns="http://www.w3.org/2000/svg"
 width="1006.000000pt" height="1006.000000pt" viewBox="0 0 1006.000000 1006.000000"
 preserveAspectRatio="xMidYMid meet">
<metadata>
Created by potrace 1.14, written by Peter Selinger 2001-2017
</metadata>
<g transform="translate(0.000000,1006.000000) scale(0.100000,-0.100000)"
fill="#000000" stroke="none">
<path d="M5487 10054 c-1 -1 -38 -4 -82 -8 -44 -3 -93 -8 -110 -11 -203 -29
-267 -40 -370 -61 -66 -14 -128 -27 -137 -30 -10 -2 -26 -6 -35 -8 -76 -17
-204 -52 -287 -77 -54 -17 -106 -32 -115 -35 -50 -12 -369 -129 -502 -185
-200 -83 -458 -206 -604 -289 -38 -22 -88 -49 -110 -61 -67 -36 -305 -189
-400 -258 -103 -74 -213 -160 -315 -247 -69 -60 -270 -262 -325 -329 -28 -33
-53 -62 -56 -65 -3 -3 -44 -61 -91 -130 -137 -201 -231 -412 -275 -620 -19
-93 -25 -385 -10 -515 5 -38 9 -77 9 -85 0 -8 4 -31 8 -50 5 -19 11 -55 14
-79 8 -63 62 -271 98 -376 67 -200 134 -339 283 -587 28 -46 133 -187 198
-265 283 -339 677 -623 1075 -774 l62 -24 0 -1422 0 -1423 1434 -2 1435 -3
-39 -100 c-22 -55 -62 -143 -89 -196 -45 -90 -160 -271 -199 -315 -9 -11 -42
-49 -72 -84 -259 -308 -679 -567 -1055 -651 -27 -6 -59 -13 -70 -15 -30 -7
-120 -22 -183 -31 -73 -10 -386 -10 -477 0 -117 13 -263 46 -400 89 -155 50
-404 172 -523 258 l-83 60 -9 -25 c-5 -13 -37 -106 -71 -207 l-61 -183 -2
-303 c0 -167 2 -309 5 -314 7 -10 215 -6 309 6 19 3 62 7 95 11 50 5 319 51
418 71 41 8 352 89 432 113 185 54 529 181 729 269 67 29 448 220 506 253 167
94 461 282 537 343 10 8 68 54 128 102 309 245 554 521 700 787 l37 67 784 0
784 0 0 750 0 750 -777 0 -778 0 -39 103 c-40 103 -131 292 -171 357 -162 259
-245 366 -415 539 -250 252 -512 433 -854 586 -109 49 -341 126 -425 142 -14
2 -28 6 -33 9 -4 3 -8 851 -8 1885 l0 1879 -750 0 -750 0 0 -1740 c0 -957 -2
-1740 -5 -1740 -11 0 -171 94 -242 141 -199 134 -420 360 -554 564 -97 149
-171 301 -228 470 -35 103 -47 147 -66 235 -2 8 -6 26 -9 40 -29 117 -43 448
-24 597 30 248 86 445 181 648 214 453 571 805 1017 1004 41 18 89 39 106 47
56 25 276 84 369 100 49 8 101 17 115 20 14 3 104 7 200 8 197 4 302 -4 450
-35 25 -5 58 -12 73 -15 203 -39 565 -206 721 -332 16 -13 32 -19 37 -15 4 4
37 97 73 207 l66 198 0 309 0 309 -101 -2 c-55 -2 -101 -4 -102 -4z m-437
-5461 c170 -63 374 -175 520 -286 87 -67 109 -86 211 -187 148 -149 289 -341
378 -518 l31 -62 -640 0 -640 0 0 551 0 550 23 -6 c12 -4 65 -23 117 -42z"/>
</g>
</svg>
